<svg width="29" height="24" viewBox="0 0 29 24" fill="none" xmlns="http://www.w3.org/2000/svg">
<path d="M14.4838 23.6416C14.4412 23.6416 14.4031 23.6181 14.384 23.5799L4.93845 4.74841C4.59286 4.07357 4.34152 3.93209 4.19004 3.93209C4.00827 3.93209 3.79283 4.35428 3.7861 5.54451V19.2041C3.7861 23.2093 6.88972 23.2554 7.02213 23.2554C7.08384 23.2554 7.13433 23.3059 7.13433 23.3677C7.13433 23.4294 7.08384 23.48 7.02213 23.48H0.196618C0.134904 23.48 0.0844116 23.4294 0.0844116 23.3677C0.0844116 23.3059 0.134904 23.2554 0.196618 23.2554C0.321167 23.2554 3.23629 23.2082 3.23629 19.1401V5.38058C3.23629 1.59205 1.33439 0.837485 0.517528 0.689268C0.464791 0.679162 0.37727 0.663442 0.37727 0.566876C0.37727 0.505119 0.427763 0.45459 0.489476 0.45459H5.20663C5.24927 0.45459 5.28742 0.47817 5.30649 0.516347L13.8981 17.6265C14.3312 18.4428 14.7644 18.8571 15.1829 18.8571C15.6811 18.8571 16.2017 18.253 16.6887 17.11L24.1123 0.554524C24.1302 0.514101 24.1706 0.488276 24.2144 0.488276H28.4401C28.5018 0.488276 28.5523 0.538804 28.5523 0.600562C28.5523 0.662319 28.5018 0.712848 28.4401 0.712848C28.4345 0.712848 27.8386 0.717339 27.2675 1.06655C26.5673 1.49548 26.2116 2.23545 26.2116 3.26848V20.8963C26.2116 21.8395 26.5909 22.5177 27.3382 22.9107C27.9609 23.2385 28.6353 23.2554 28.7643 23.2554C28.826 23.2554 28.8765 23.3059 28.8765 23.3677C28.8765 23.4294 28.826 23.48 28.7643 23.48H21.2892C21.2274 23.48 21.1769 23.4294 21.1769 23.3677C21.1769 23.3059 21.2274 23.2554 21.2892 23.2554C21.4171 23.2554 22.0847 23.2385 22.6985 22.9107C23.4357 22.5177 23.8093 21.8395 23.8093 20.8963V5.54339C23.8093 3.93209 23.6791 3.93209 23.4996 3.93209L23.4783 3.93096C23.3055 3.93096 23.1047 4.38123 22.8915 4.85732C22.8196 5.01789 22.7433 5.18857 22.6581 5.36486L14.5871 23.5754C14.5691 23.6147 14.531 23.6405 14.4872 23.6416C14.4861 23.6416 14.485 23.6416 14.4838 23.6416Z" fill="#02022B"/>
<path d="M14.4881 23.7258H14.4847C14.4095 23.7258 14.3422 23.6843 14.3097 23.6169L4.86302 4.78544C4.50733 4.09039 4.27394 4.01516 4.18978 4.01516C4.10899 4.01516 3.87673 4.29588 3.86999 5.54337V19.2018C3.86999 23.1229 6.89283 23.1689 7.02187 23.1689C7.12959 23.1689 7.21823 23.2576 7.21823 23.3654C7.21823 23.4732 7.12959 23.5619 7.02187 23.5619H0.196361C0.0886429 23.5619 0 23.4732 0 23.3654C0 23.2576 0.0886429 23.1689 0.196361 23.1689C0.317544 23.1689 3.15187 23.1229 3.15187 19.1378V5.38056C3.15187 1.65491 1.29823 0.916071 0.501562 0.772345C0.451069 0.762239 0.292858 0.734168 0.292858 0.566862C0.292858 0.459067 0.381501 0.370361 0.489219 0.370361H5.20637C5.28155 0.370361 5.34775 0.411907 5.38141 0.478156L13.973 17.5883C14.3905 18.3743 14.7978 18.7729 15.1826 18.7729C15.6382 18.7729 16.1454 18.1699 16.611 17.0774L24.0357 0.519702C24.0671 0.448962 24.1378 0.404047 24.2152 0.404047H28.4409C28.5486 0.404047 28.6373 0.492753 28.6373 0.600548C28.6373 0.708342 28.5486 0.797048 28.4409 0.797048C28.4353 0.797048 27.8586 0.803785 27.3121 1.1384C26.6389 1.55049 26.2967 2.26687 26.2967 3.26846V20.8962C26.2967 21.8057 26.6602 22.4581 27.3783 22.8365C27.9842 23.1554 28.6406 23.1711 28.7652 23.1711C28.8729 23.1711 28.9616 23.2599 28.9616 23.3676C28.9616 23.4754 28.8729 23.5641 28.7652 23.5641H21.29C21.1823 23.5641 21.0937 23.4754 21.0937 23.3676C21.0937 23.2599 21.1823 23.1711 21.29 23.1711C21.4146 23.1711 22.0631 23.1554 22.6601 22.8365C23.367 22.4593 23.726 21.8057 23.726 20.8962V5.54337C23.726 4.01629 23.606 4.01629 23.5005 4.01629L23.4747 4.01516C23.3613 4.01516 23.1246 4.54291 22.9686 4.89099C22.8968 5.05269 22.8194 5.22448 22.7341 5.40077L14.6631 23.6091C14.6328 23.6787 14.5644 23.7236 14.4881 23.7258ZM4.1909 3.84786C4.44449 3.84786 4.72164 4.13755 5.0145 4.71021L14.46 23.5428C14.4645 23.5529 14.4746 23.5585 14.4847 23.5585H14.4869C14.4959 23.5585 14.506 23.5518 14.5094 23.5417L22.5815 5.33115C22.6668 5.15374 22.7431 4.98307 22.8149 4.82362C23.0864 4.2184 23.2637 3.84786 23.4792 3.84786L23.505 3.84898C23.7866 3.84898 23.8943 3.99607 23.8943 5.5445V20.8962C23.8943 21.8731 23.5061 22.576 22.7397 22.9859C22.108 23.3227 21.4213 23.3407 21.29 23.3407C21.2743 23.3407 21.262 23.353 21.262 23.3688C21.262 23.3845 21.2743 23.3968 21.29 23.3968H28.7652C28.7809 23.3968 28.7932 23.3845 28.7932 23.3688C28.7932 23.353 28.7809 23.3407 28.7652 23.3407C28.6328 23.3407 27.9405 23.3239 27.2998 22.9859C26.5222 22.576 26.1283 21.8731 26.1283 20.8962V3.26734C26.1283 2.20399 26.4975 1.43932 27.2235 0.993548C27.8148 0.631988 28.4342 0.627496 28.4398 0.627496C28.4555 0.627496 28.4678 0.615145 28.4678 0.599425C28.4678 0.583705 28.4555 0.571353 28.4398 0.571353H24.2141C24.2029 0.571353 24.1928 0.57809 24.1883 0.588196L16.7647 17.1448C16.2643 18.3193 15.7167 18.9413 15.1826 18.9413C14.7304 18.9413 14.2738 18.5124 13.8238 17.6658L5.23218 0.55451C5.22657 0.545527 5.21759 0.53879 5.20637 0.53879H0.489219C0.47351 0.53879 0.461168 0.551142 0.461168 0.566862C0.461168 0.582582 0.461168 0.592688 0.53298 0.606162C1.37116 0.758871 3.32131 1.52803 3.32131 5.38056V19.139C3.32131 23.2913 0.324276 23.3385 0.197483 23.3385C0.181774 23.3385 0.169431 23.3508 0.169431 23.3665C0.169431 23.3822 0.181774 23.3946 0.197483 23.3946H7.02299C7.0387 23.3946 7.05104 23.3822 7.05104 23.3665C7.05104 23.3508 7.0387 23.3385 7.02299 23.3385C6.88722 23.3385 3.70281 23.2913 3.70281 19.203V5.5445C3.70842 4.46543 3.8857 3.84786 4.1909 3.84786Z" fill="#02022B"/>
</svg>
