<svg width="24" height="24" viewBox="0 0 24 24" fill="none" xmlns="http://www.w3.org/2000/svg">
<path fill-rule="evenodd" clip-rule="evenodd" d="M7.69543 13.3909C7.05067 13.3909 6.52686 12.8671 6.52686 12.2223C6.52686 11.5795 7.05067 11.0557 7.69543 11.0557C8.34019 11.0557 8.864 11.5795 8.864 12.2223C8.864 12.8671 8.34019 13.3909 7.69543 13.3909ZM12.2384 13.3909C11.5936 13.3909 11.0698 12.8671 11.0698 12.2223C11.0698 11.5795 11.5936 11.0557 12.2384 11.0557C12.8832 11.0557 13.407 11.5795 13.407 12.2223C13.407 12.8671 12.8832 13.3909 12.2384 13.3909ZM15.6128 12.2223C15.6128 12.8671 16.1366 13.3909 16.7814 13.3909C17.4261 13.3909 17.9499 12.8671 17.9499 12.2223C17.9499 11.5795 17.4261 11.0557 16.7814 11.0557C16.1366 11.0557 15.6128 11.5795 15.6128 12.2223Z" fill="#323F55"/>
<path fill-rule="evenodd" clip-rule="evenodd" d="M12.02 2C6.21 2 2 6.74612 2 12.015C2 13.6975 2.49 15.4291 3.35 17.0115C3.51 17.2729 3.53 17.6024 3.42 17.9139L2.75 20.1572C2.6 20.698 3.06 21.0976 3.57 20.9374L5.59 20.3375C6.14 20.1572 6.57 20.3866 7.08 20.698C8.54 21.5583 10.36 22 12 22C16.96 22 22 18.1642 22 11.985C22 6.65598 17.7 2 12.02 2Z" stroke="#323F55" stroke-width="1.5" stroke-linecap="round" stroke-linejoin="round"/>
</svg>
