<svg width="22" height="24" viewBox="0 0 22 24" fill="none" xmlns="http://www.w3.org/2000/svg">
<path d="M17.0027 8.00106C17.0027 6.40948 16.3704 4.88309 15.245 3.75767C14.1196 2.63225 12.5932 2 11.0016 2C9.41001 2 7.88362 2.63225 6.7582 3.75767C5.63278 4.88309 5.00053 6.40948 5.00053 8.00106C5.00053 15.0023 2 17.0027 2 17.0027H20.0032C20.0032 17.0027 17.0027 15.0023 17.0027 8.00106Z" stroke="#233352" stroke-width="2.22222" stroke-linecap="round" stroke-linejoin="round"/>
<path d="M12.7319 21.0034C12.5561 21.3065 12.3037 21.5582 12 21.7331C11.6963 21.908 11.352 22.0001 11.0016 22.0001C10.6512 22.0001 10.3069 21.908 10.0032 21.7331C9.69953 21.5582 9.44714 21.3065 9.2713 21.0034" stroke="#233352" stroke-width="2.22222" stroke-linecap="round" stroke-linejoin="round"/>
</svg>
