<svg width="24" height="24" viewBox="0 0 24 24" fill="none" xmlns="http://www.w3.org/2000/svg">
<path fill-rule="evenodd" clip-rule="evenodd" d="M10.4118 6.17676C10.4121 10.27 13.7303 13.5882 17.8235 13.5885C13.7303 13.5889 10.4121 16.907 10.4118 21.0003C10.4121 16.907 13.7303 13.5889 17.8235 13.5885C13.7303 13.5882 10.4121 10.27 10.4118 6.17676C10.4114 10.27 7.09327 13.5882 3 13.5885C7.09327 13.5882 10.4114 10.27 10.4118 6.17676ZM17.8242 13.5885C13.7309 13.5889 10.4128 16.907 10.4125 21.0003C10.4121 16.907 7.09396 13.5889 3.00069 13.5885C7.09396 13.5889 10.4121 16.907 10.4125 21.0003C10.4128 16.907 13.7309 13.5889 17.8242 13.5885C13.7309 13.5882 10.4128 10.27 10.4125 6.17676C10.4128 10.27 13.7309 13.5882 17.8242 13.5885Z" fill="#02022B"/>
<path d="M11.1618 6.1767C11.1617 5.76248 10.8259 5.42673 10.4117 5.42676C9.99749 5.42679 9.66173 5.7626 9.66176 6.17682L11.1618 6.1767ZM17.8235 13.5885L17.8236 14.3385C18.2378 14.3385 18.5735 14.0027 18.5735 13.5885C18.5735 13.1743 18.2378 12.8386 17.8236 12.8385L17.8235 13.5885ZM9.66176 21.0002C9.66173 21.4144 9.99749 21.7503 10.4117 21.7503C10.8259 21.7503 11.1617 21.4146 11.1618 21.0003L9.66176 21.0002ZM17.8235 13.5885L17.8236 14.3385C18.2378 14.3385 18.5735 14.0027 18.5735 13.5885C18.5735 13.1743 18.2378 12.8386 17.8236 12.8385L17.8235 13.5885ZM10.4118 6.17676L11.1618 6.1767C11.1617 5.76251 10.826 5.42676 10.4118 5.42676C9.99757 5.42676 9.6618 5.76251 9.66176 6.1767L10.4118 6.17676ZM2.99994 12.8385C2.58573 12.8386 2.24997 13.1744 2.25 13.5886C2.25003 14.0028 2.58585 14.3386 3.00006 14.3385L2.99994 12.8385ZM11.1618 6.17682C11.1618 5.7626 10.826 5.42679 10.4118 5.42676C9.99761 5.42673 9.6618 5.76248 9.66176 6.1767L11.1618 6.17682ZM17.8243 14.3385C18.2385 14.3385 18.5743 14.0027 18.5742 13.5885C18.5742 13.1742 18.2384 12.8385 17.8242 12.8385L17.8243 14.3385ZM10.4125 21.0003L9.66245 21.0003C9.66249 21.4145 9.99826 21.7503 10.4125 21.7503C10.8266 21.7503 11.1624 21.4145 11.1625 21.0003L10.4125 21.0003ZM3.00075 12.8385C2.58654 12.8385 2.25072 13.1742 2.25069 13.5885C2.25066 14.0027 2.58642 14.3385 3.00063 14.3385L3.00075 12.8385ZM10.4125 21.0003L9.66245 21.0003C9.66249 21.4145 9.99826 21.7503 10.4125 21.7503C10.8266 21.7503 11.1624 21.4145 11.1625 21.0003L10.4125 21.0003ZM17.8242 13.5885L17.8243 14.3385C18.2385 14.3385 18.5742 14.0027 18.5742 13.5885C18.5742 13.1743 18.2385 12.8386 17.8243 12.8385L17.8242 13.5885ZM11.1625 6.1767C11.1624 5.76248 10.8266 5.42672 10.4124 5.42676C9.99818 5.42679 9.66242 5.7626 9.66245 6.17682L11.1625 6.1767ZM17.8242 14.3385C18.2384 14.3386 18.5742 14.0028 18.5742 13.5886C18.5743 13.1744 18.2385 12.8386 17.8243 12.8385L17.8242 14.3385ZM9.66176 6.17682C9.66213 10.6843 13.316 14.3382 17.8235 14.3385L17.8236 12.8385C14.1445 12.8382 11.1621 9.8558 11.1618 6.1767L9.66176 6.17682ZM17.8235 12.8385C13.316 12.8389 9.66213 16.4928 9.66176 21.0002L11.1618 21.0003C11.1621 17.3212 14.1445 14.3388 17.8236 14.3385L17.8235 12.8385ZM11.1618 21.0003C11.1621 17.3212 14.1445 14.3388 17.8236 14.3385L17.8235 12.8385C13.316 12.8389 9.66213 16.4928 9.66176 21.0002L11.1618 21.0003ZM17.8236 12.8385C14.1445 12.8382 11.1621 9.8558 11.1618 6.1767L9.66176 6.17682C9.66213 10.6843 13.316 14.3382 17.8235 14.3385L17.8236 12.8385ZM9.66176 6.1767C9.66147 9.8558 6.67904 12.8382 2.99994 12.8385L3.00006 14.3385C7.5075 14.3382 11.1614 10.6843 11.1618 6.17682L9.66176 6.1767ZM3.00006 14.3385C7.5075 14.3382 11.1614 10.6843 11.1618 6.17682L9.66176 6.1767C9.66147 9.8558 6.67904 12.8382 2.99994 12.8385L3.00006 14.3385ZM17.8242 12.8385C13.3167 12.8389 9.66281 16.4928 9.66245 21.0002L11.1625 21.0003C11.1627 17.3212 14.1452 14.3388 17.8243 14.3385L17.8242 12.8385ZM11.1625 21.0002C11.1621 16.4928 7.50818 12.8389 3.00075 12.8385L3.00063 14.3385C6.67973 14.3388 9.66216 17.3212 9.66245 21.0003L11.1625 21.0002ZM3.00063 14.3385C6.67973 14.3388 9.66216 17.3212 9.66245 21.0003L11.1625 21.0002C11.1621 16.4928 7.50818 12.8389 3.00075 12.8385L3.00063 14.3385ZM11.1625 21.0003C11.1627 17.3212 14.1452 14.3388 17.8243 14.3385L17.8242 12.8385C13.3167 12.8389 9.66281 16.4928 9.66245 21.0002L11.1625 21.0003ZM17.8243 12.8385C14.1452 12.8382 11.1627 9.8558 11.1625 6.1767L9.66245 6.17682C9.66281 10.6843 13.3167 14.3382 17.8242 14.3385L17.8243 12.8385ZM9.66245 6.17682C9.66281 10.6843 13.3167 14.3382 17.8242 14.3385L17.8243 12.8385C14.1452 12.8382 11.1627 9.8558 11.1625 6.1767L9.66245 6.17682Z" fill="#02022B"/>
<path fill-rule="evenodd" clip-rule="evenodd" d="M18.0001 4C18.0003 5.65688 19.3434 7.00001 21.0003 7.00014C19.3434 7.00028 18.0003 8.34341 18.0001 10.0003C18.0003 8.34341 19.3434 7.00028 21.0003 7.00014C19.3434 7.00001 18.0003 5.65688 18.0001 4C18 5.65688 16.6569 7.00001 15 7.00014C16.6569 7.00001 18 5.65688 18.0001 4ZM21.001 7.00014C19.3441 7.00028 18.001 8.34341 18.0008 10.0003C18.0007 8.34341 16.6576 7.00028 15.0007 7.00014C16.6576 7.00028 18.0007 8.34341 18.0008 10.0003C18.001 8.34341 19.3441 7.00028 21.001 7.00014C19.3441 7.00001 18.001 5.65688 18.0008 4C18.001 5.65688 19.3441 7.00001 21.001 7.00014Z" fill="#02022B"/>
<path d="M18.5001 3.99996C18.5001 3.72382 18.2762 3.49998 18.0001 3.5C17.724 3.50002 17.5001 3.7239 17.5001 4.00004L18.5001 3.99996ZM21.0003 7.00014L21.0003 7.50014C21.2765 7.50012 21.5003 7.27627 21.5003 7.00014C21.5003 6.72402 21.2765 6.50017 21.0003 6.50014L21.0003 7.00014ZM17.5001 10.0002C17.5001 10.2764 17.724 10.5003 18.0001 10.5003C18.2762 10.5003 18.5001 10.2765 18.5001 10.0003L17.5001 10.0002ZM21.0003 7.00014L21.0003 7.50014C21.2765 7.50012 21.5003 7.27627 21.5003 7.00014C21.5003 6.72402 21.2765 6.50017 21.0003 6.50014L21.0003 7.00014ZM18.0001 4L18.5001 3.99996C18.5001 3.72383 18.2763 3.5 18.0001 3.5C17.724 3.5 17.5002 3.72383 17.5001 3.99996L18.0001 4ZM15 6.50014C14.7238 6.50017 14.5 6.72404 14.5 7.00018C14.5 7.27633 14.7239 7.50017 15 7.50014L15 6.50014ZM18.5001 4.00004C18.5002 3.7239 18.2763 3.50002 18.0002 3.5C17.724 3.49998 17.5002 3.72382 17.5001 3.99996L18.5001 4.00004ZM21.001 7.50014C21.2772 7.50012 21.501 7.27625 21.501 7.0001C21.501 6.72396 21.2771 6.50012 21.0009 6.50014L21.001 7.50014ZM18.0008 10.0003L17.5008 10.0003C17.5009 10.2765 17.7247 10.5003 18.0008 10.5003C18.277 10.5003 18.5008 10.2765 18.5008 10.0003L18.0008 10.0003ZM15.0007 6.50014C14.7246 6.50012 14.5007 6.72396 14.5007 7.0001C14.5007 7.27625 14.7245 7.50012 15.0006 7.50014L15.0007 6.50014ZM18.0008 10.0003L17.5008 10.0003C17.5009 10.2765 17.7247 10.5003 18.0008 10.5003C18.277 10.5003 18.5008 10.2765 18.5008 10.0003L18.0008 10.0003ZM21.001 7.00014L21.001 7.50014C21.2771 7.50012 21.501 7.27627 21.501 7.00014C21.501 6.72402 21.2771 6.50017 21.001 6.50014L21.001 7.00014ZM18.5008 3.99996C18.5008 3.72382 18.2769 3.49998 18.0008 3.5C17.7247 3.50002 17.5008 3.7239 17.5008 4.00004L18.5008 3.99996ZM21.0009 7.50014C21.2771 7.50017 21.501 7.27633 21.501 7.00018C21.501 6.72404 21.2772 6.50017 21.001 6.50014L21.0009 7.50014ZM17.5001 4.00004C17.5003 5.93303 19.0673 7.49999 21.0002 7.50014L21.0003 6.50014C19.6196 6.50003 18.5003 5.38073 18.5001 3.99996L17.5001 4.00004ZM21.0002 6.50014C19.0673 6.5003 17.5003 8.06726 17.5001 10.0002L18.5001 10.0003C18.5003 8.61956 19.6196 7.50025 21.0003 7.50014L21.0002 6.50014ZM18.5001 10.0003C18.5003 8.61956 19.6196 7.50025 21.0003 7.50014L21.0002 6.50014C19.0673 6.5003 17.5003 8.06726 17.5001 10.0002L18.5001 10.0003ZM21.0003 6.50014C19.6196 6.50003 18.5003 5.38073 18.5001 3.99996L17.5001 4.00004C17.5003 5.93303 19.0673 7.49999 21.0002 7.50014L21.0003 6.50014ZM17.5001 3.99996C17.5 5.38073 16.3807 6.50003 15 6.50014L15 7.50014C16.933 7.49999 18.5 5.93303 18.5001 4.00004L17.5001 3.99996ZM15 7.50014C16.933 7.49999 18.5 5.93303 18.5001 4.00004L17.5001 3.99996C17.5 5.38073 16.3807 6.50003 15 6.50014L15 7.50014ZM21.0009 6.50014C19.0679 6.5003 17.501 8.06726 17.5008 10.0002L18.5008 10.0003C18.5009 8.61956 19.6202 7.50025 21.001 7.50014L21.0009 6.50014ZM18.5008 10.0002C18.5007 8.06726 16.9337 6.5003 15.0007 6.50014L15.0006 7.50014C16.3814 7.50025 17.5007 8.61956 17.5008 10.0003L18.5008 10.0002ZM15.0006 7.50014C16.3814 7.50025 17.5007 8.61956 17.5008 10.0003L18.5008 10.0002C18.5007 8.06726 16.9337 6.5003 15.0007 6.50014L15.0006 7.50014ZM18.5008 10.0003C18.5009 8.61956 19.6202 7.50025 21.001 7.50014L21.0009 6.50014C19.0679 6.5003 17.501 8.06726 17.5008 10.0002L18.5008 10.0003ZM21.001 6.50014C19.6202 6.50003 18.5009 5.38073 18.5008 3.99996L17.5008 4.00004C17.501 5.93303 19.0679 7.49999 21.0009 7.50014L21.001 6.50014ZM17.5008 4.00004C17.501 5.93303 19.0679 7.49999 21.0009 7.50014L21.001 6.50014C19.6202 6.50003 18.5009 5.38073 18.5008 3.99996L17.5008 4.00004Z" fill="#02022B"/>
</svg>
