<svg width="17" height="16" viewBox="0 0 17 16" fill="none" xmlns="http://www.w3.org/2000/svg">
<path d="M13.0985 0C12.9659 3.2347e-05 12.8363 0.0396308 12.7263 0.113729C12.6163 0.187827 12.5309 0.293055 12.4811 0.415949C12.4312 0.538843 12.4192 0.673815 12.4465 0.803595C12.4738 0.933375 12.5391 1.05206 12.6343 1.14447L13.718 2.2282H13.1054C7.8381 2.2282 3.55401 6.51229 3.55401 11.7796C3.55276 11.8679 3.56908 11.9556 3.60201 12.0375C3.63493 12.1195 3.68382 12.1941 3.74582 12.2569C3.80783 12.3198 3.88171 12.3698 3.96318 12.4038C4.04465 12.4379 4.13208 12.4555 4.22039 12.4555C4.3087 12.4555 4.39613 12.4379 4.4776 12.4038C4.55907 12.3698 4.63295 12.3198 4.69496 12.2569C4.75696 12.1941 4.80585 12.1195 4.83877 12.0375C4.8717 11.9556 4.88802 11.8679 4.88677 11.7796C4.88677 7.23252 8.55833 3.56095 13.1054 3.56095H13.718L12.6343 4.64469C12.5703 4.70609 12.5193 4.77964 12.4841 4.86102C12.4489 4.9424 12.4303 5.02999 12.4294 5.11864C12.4285 5.20729 12.4453 5.29524 12.4788 5.37732C12.5124 5.4594 12.5619 5.53397 12.6246 5.59666C12.6873 5.65935 12.7619 5.70891 12.8439 5.74242C12.926 5.77593 13.014 5.79273 13.1026 5.79183C13.1913 5.79092 13.2789 5.77234 13.3602 5.73717C13.4416 5.702 13.5152 5.65094 13.5766 5.58698L15.7406 3.42299C15.822 3.36054 15.8879 3.28013 15.9332 3.18802C15.9784 3.09592 16.0018 2.9946 16.0014 2.89198C16.0011 2.78936 15.9771 2.6882 15.9312 2.5964C15.8854 2.50459 15.8189 2.42461 15.7371 2.36269L13.5766 0.202169C13.5145 0.138203 13.4401 0.0873513 13.358 0.0526249C13.2759 0.0178984 13.1876 3.5504e-06 13.0985 0ZM2.88764 0.00694143C1.3008 0.00694143 0 1.30774 0 2.89458V13.1124C0 14.6992 1.3008 16 2.88764 16H13.1054C14.6923 16 15.9931 14.6992 15.9931 13.1124V9.55835C15.9943 9.47005 15.978 9.38238 15.9451 9.30044C15.9121 9.21849 15.8633 9.14391 15.8012 9.08102C15.7392 9.01814 15.6654 8.9682 15.5839 8.93412C15.5024 8.90003 15.415 8.88248 15.3267 8.88248C15.2384 8.88248 15.1509 8.90003 15.0695 8.93412C14.988 8.9682 14.9141 9.01814 14.8521 9.08102C14.7901 9.14391 14.7412 9.21849 14.7083 9.30044C14.6754 9.38238 14.6591 9.47005 14.6603 9.55835V13.1124C14.6603 13.9787 13.9717 14.6672 13.1054 14.6672H2.88764C2.02132 14.6672 1.33275 13.9787 1.33275 13.1124V2.89458C1.33275 2.02826 2.02132 1.3397 2.88764 1.3397H6.44165C6.52995 1.34095 6.61762 1.32463 6.69956 1.2917C6.78151 1.25877 6.85609 1.20989 6.91898 1.14789C6.98186 1.08588 7.0318 1.012 7.06588 0.930531C7.09997 0.849062 7.11752 0.761631 7.11752 0.673319C7.11752 0.585007 7.09997 0.497576 7.06588 0.416106C7.0318 0.334637 6.98186 0.260754 6.91898 0.198751C6.85609 0.136749 6.78151 0.0878627 6.69956 0.0549345C6.61762 0.0220063 6.52995 0.00569261 6.44165 0.00694143H2.88764Z" fill="#323F55"/>
</svg>
