<svg width="16" height="16" viewBox="0 0 16 16" fill="none" xmlns="http://www.w3.org/2000/svg">
<path d="M8.00002 2.66663C4.01644 2.66663 0.865133 7.55501 0.733141 7.76301C0.644536 7.90167 0.644536 8.09748 0.733141 8.23615C0.865133 8.44491 4.01644 13.3333 8.00002 13.3333C11.9836 13.3333 15.1349 8.44491 15.2669 8.23691C15.3555 8.09824 15.3555 7.90243 15.2669 7.76377C15.1349 7.55501 11.9836 2.66663 8.00002 2.66663ZM8.00002 12.5714C4.79372 12.5714 2.05184 8.96834 1.37232 7.99996C2.05184 7.03158 4.79372 3.42853 8.00002 3.42853C11.2063 3.42853 13.9482 7.03158 14.6277 7.99996C13.9482 8.96834 11.2063 12.5714 8.00002 12.5714Z" fill="#797F99" stroke="#797F99" stroke-width="0.4"/>
<path d="M8 6C6.8972 6 6 6.8972 6 8C6 9.1028 6.8972 10 8 10C9.1028 10 10 9.1028 10 8C10 6.8972 9.1028 6 8 6ZM8 9.6C7.1176 9.6 6.4 8.8824 6.4 8C6.4 7.1176 7.1176 6.4 8 6.4C8.8824 6.4 9.6 7.1176 9.6 8C9.6 8.8824 8.8824 9.6 8 9.6Z" fill="#797F99" stroke="#797F99" stroke-width="0.6"/>
</svg>
